<svg width="16" height="12" viewBox="0 0 16 12" fill="none" xmlns="http://www.w3.org/2000/svg">
<path d="M10.3641 5.68359C9.7216 5.68359 9.10035 5.39672 8.6141 4.87609C8.14129 4.36828 7.85254 3.69109 7.8016 2.96984C7.74722 2.20047 7.98191 1.49297 8.46223 0.977344C8.94254 0.461719 9.6141 0.183594 10.3641 0.183594C11.1088 0.183594 11.7822 0.466719 12.261 0.981094C12.7444 1.50047 12.9797 2.20672 12.9254 2.96953C12.8732 3.69172 12.5847 4.36859 12.1129 4.87578C11.6279 5.39672 11.0069 5.68359 10.3641 5.68359ZM14.4838 11.1836H6.24472C6.11226 11.1843 5.9814 11.1546 5.86221 11.0968C5.74302 11.039 5.63868 10.9546 5.55722 10.8502C5.47082 10.7369 5.41115 10.6056 5.38268 10.466C5.35422 10.3265 5.35769 10.1823 5.39285 10.0442C5.65597 8.98766 6.30785 8.11141 7.27785 7.51047C8.13879 6.97734 9.23473 6.68359 10.3641 6.68359C11.5157 6.68359 12.5829 6.96484 13.4488 7.49766C14.421 8.09547 15.0738 8.97672 15.3357 10.0461C15.3704 10.1842 15.3735 10.3284 15.3447 10.4679C15.3159 10.6074 15.256 10.7386 15.1694 10.8517C15.088 10.9557 14.9839 11.0397 14.8651 11.0972C14.7463 11.1547 14.6158 11.1843 14.4838 11.1836ZM4.45785 5.80859C3.35816 5.80859 2.39129 4.78609 2.3016 3.52953C2.25723 2.88578 2.45785 2.29047 2.8641 1.85391C3.26598 1.42172 3.83285 1.18359 4.45785 1.18359C5.08285 1.18359 5.64535 1.42297 6.04941 1.85766C6.45879 2.29766 6.65879 2.89172 6.61191 3.53016C6.52222 4.78641 5.55566 5.80859 4.45785 5.80859ZM6.50973 6.79141C5.96004 6.52266 5.2466 6.38828 4.45816 6.38828C3.53754 6.38828 2.64348 6.62828 1.94035 7.06391C1.14316 7.55859 0.606913 8.27891 0.39035 9.14859C0.358658 9.27369 0.355661 9.40432 0.381582 9.53074C0.407503 9.65715 0.461672 9.77607 0.540038 9.87859C0.614396 9.97405 0.709658 10.0512 0.818496 10.1041C0.927334 10.1569 1.04685 10.1841 1.16785 10.1836H4.6366C4.69515 10.1836 4.75183 10.163 4.79678 10.1255C4.84172 10.088 4.87207 10.0359 4.88254 9.97828C4.88597 9.95859 4.89035 9.93891 4.89535 9.91953C5.16035 8.85516 5.78129 7.95578 6.69879 7.30016C6.73253 7.27583 6.75968 7.24347 6.77776 7.20601C6.79583 7.16854 6.80428 7.12716 6.80232 7.0856C6.80037 7.04405 6.78808 7.00364 6.76656 6.96804C6.74504 6.93244 6.71498 6.90277 6.6791 6.88172C6.63004 6.85297 6.57379 6.82266 6.50973 6.79141Z" fill="#3B72FF"/>
</svg>
