<svg width="16" height="15" viewBox="0 0 16 15" fill="none" xmlns="http://www.w3.org/2000/svg">
<path d="M12.1763 14.6836C12.0711 14.684 11.9684 14.6512 11.8829 14.5898L7.8638 11.6761L3.84474 14.5898C3.75887 14.6521 3.65543 14.6855 3.54935 14.6851C3.44328 14.6847 3.34008 14.6506 3.25467 14.5877C3.16926 14.5248 3.10607 14.4364 3.07423 14.3352C3.04239 14.234 3.04355 14.1253 3.07755 14.0248L4.64505 9.38202L0.582549 6.59608C0.494552 6.5358 0.428137 6.44897 0.393008 6.34825C0.357879 6.24754 0.355877 6.13824 0.387294 6.03631C0.41871 5.93438 0.4819 5.84516 0.56763 5.7817C0.65336 5.71824 0.757137 5.68386 0.863799 5.68358H5.87567L7.38817 1.02889C7.42076 0.928402 7.48433 0.840811 7.56978 0.778689C7.65523 0.716567 7.75816 0.683105 7.8638 0.683105C7.96944 0.683105 8.07237 0.716567 8.15782 0.778689C8.24327 0.840811 8.30684 0.928402 8.33942 1.02889L9.85192 5.68514H14.8638C14.9706 5.68509 15.0746 5.71924 15.1606 5.78257C15.2466 5.84591 15.31 5.93512 15.3416 6.03713C15.3732 6.13913 15.3714 6.24858 15.3363 6.34945C15.3012 6.45031 15.2347 6.53729 15.1466 6.59764L11.0825 9.38202L12.6491 14.0236C12.6745 14.0987 12.6816 14.1788 12.6699 14.2573C12.6582 14.3357 12.6281 14.4103 12.5819 14.4748C12.5357 14.5392 12.4748 14.5918 12.4043 14.6281C12.3338 14.6644 12.2556 14.6834 12.1763 14.6836Z" fill="#FFA02F"/>
</svg>
